# Blender v2.78 (sub 0) OBJ File: 'bumpers.blend'
# www.blender.org
mtllib bumpers.mtl
o Cube.001
v -0.896757 0.049000 0.894608
v -0.906271 0.058853 0.917322
v -0.806041 0.049000 0.995301
v -0.826495 0.058859 1.005868
v -0.866986 0.049000 0.962267
v -0.871956 0.053157 0.967776
v -0.900864 0.049000 0.801928
v -0.909378 0.055864 0.809583
v -0.722536 0.049000 0.999860
v -0.729398 0.055863 1.009309
v -0.706505 0.049000 0.784126
v -0.698196 0.055862 0.774909
v -0.906277 0.241143 0.917312
v -0.896756 0.251000 0.894623
v -0.826493 0.241140 1.005868
v -0.806048 0.251000 0.995301
v -0.871956 0.246843 0.967777
v -0.866991 0.251000 0.962267
v -0.909380 0.244133 0.809672
v -0.900864 0.251000 0.801925
v -0.729400 0.244137 1.009309
v -0.722537 0.251000 0.999860
v -0.698190 0.244137 0.774910
v -0.706497 0.251000 0.784127
v -0.900864 0.049000 -0.801933
v -0.909377 0.055863 -0.809550
v -0.896757 0.049000 -0.894612
v -0.906276 0.058857 -0.917320
v -0.866988 0.049000 -0.962266
v -0.871958 0.053156 -0.967772
v -0.806047 0.049000 -0.995299
v -0.826488 0.058857 -1.005866
v -0.706490 0.049000 -0.784134
v -0.698186 0.055863 -0.774911
v -0.909377 0.244137 -0.809551
v -0.900864 0.251000 -0.801933
v -0.906275 0.241144 -0.917322
v -0.896757 0.251000 -0.894606
v -0.871958 0.246842 -0.967776
v -0.866988 0.251000 -0.962260
v -0.826500 0.241144 -1.005864
v -0.806032 0.251000 -0.995299
v -0.698197 0.244143 -0.774917
v -0.706503 0.251000 -0.784130
v 0.722534 0.049000 0.999860
v 0.729397 0.055863 1.009309
v 0.706501 0.049000 0.784139
v 0.698183 0.055868 0.774908
v 0.806032 0.049000 0.995301
v 0.826499 0.058856 1.005866
v 0.866986 0.049000 0.962262
v 0.871958 0.053158 0.967778
v 0.896755 0.049000 0.894607
v 0.906273 0.058856 0.917324
v 0.900862 0.049000 0.801936
v 0.909375 0.055862 0.809559
v 0.729505 0.244133 1.009312
v 0.722528 0.251000 0.999860
v 0.698183 0.244139 0.774917
v 0.706493 0.251000 0.784133
v 0.826487 0.241143 1.005868
v 0.806045 0.251000 0.995300
v 0.871956 0.246843 0.967775
v 0.866992 0.251000 0.962265
v 0.906276 0.241140 0.917316
v 0.896754 0.251000 0.894626
v 0.909377 0.244139 0.809505
v 0.900856 0.251000 0.802064
v 0.706501 0.049000 -0.784130
v 0.698186 0.055861 -0.774915
v 0.722530 0.049000 -0.999858
v 0.729387 0.055863 -1.009307
v 0.900863 0.049000 -0.801928
v 0.909376 0.055863 -0.809539
v 0.866986 0.049000 -0.962259
v 0.871957 0.053158 -0.967776
v 0.806031 0.049000 -0.995300
v 0.826499 0.058856 -1.005863
v 0.896755 0.049000 -0.894605
v 0.906273 0.058856 -0.917322
v 0.698191 0.244138 -0.774908
v 0.706498 0.251000 -0.784124
v 0.729393 0.244136 -1.009307
v 0.722530 0.251000 -0.999858
v 0.909378 0.244133 -0.809671
v 0.900862 0.251000 -0.801933
v 0.871955 0.246843 -0.967773
v 0.866989 0.251000 -0.962265
v 0.826491 0.241139 -1.005867
v 0.806048 0.251000 -0.995298
v 0.906275 0.241144 -0.917309
v 0.896755 0.251000 -0.894619
v 0.706501 0.049000 -0.784130
v 0.698186 0.055861 -0.774915
v 0.900863 0.049000 -0.801928
v 0.909376 0.055863 -0.809539
v 0.698191 0.244138 -0.774908
v 0.706498 0.251000 -0.784124
v 0.909378 0.244133 -0.809671
v 0.900862 0.251000 -0.801933
v -0.729398 0.055863 1.009309
v -0.729400 0.244137 1.009309
v -0.722537 0.251000 0.999860
v -0.706497 0.251000 0.784127
v 0.729397 0.055863 1.009309
v 0.729505 0.244133 1.009312
v 0.722528 0.251000 0.999860
v 0.706493 0.251000 0.784133
vt 0.0000 0.0000
vt 0.0000 0.0000
vt 0.0000 0.0000
vt 0.0000 0.0000
vt 0.0000 0.0000
vt 0.0000 0.0000
vt 0.0000 0.0000
vt 0.0000 0.0000
vt 0.0000 0.0000
vt 0.0000 0.0000
vt 0.0000 0.0000
vt 0.0000 0.0000
vt 0.0000 0.0000
vt 0.0000 0.0000
vt 0.0000 0.0000
vt 0.0000 0.0000
vt 0.0000 0.0000
vt 0.0000 0.0000
vt 0.0000 0.0000
vt 0.0000 0.0000
vt 0.0000 0.0000
vt 0.0000 0.0000
vt 0.0000 0.0000
vt 0.0000 0.0000
vt 0.0000 0.0000
vt 0.0000 0.0000
vt 0.0000 0.0000
vt 0.0002 1.0000
vt 0.9993 0.8004
vt 0.9998 1.0000
vt 0.0000 0.0000
vt 0.0000 0.0000
vt 0.0000 0.0000
vt 0.0000 0.0000
vt 0.0000 0.0000
vt 0.0000 0.0000
vt 0.0000 0.0000
vt 0.0000 0.0000
vt 0.0000 0.0000
vt 0.0000 0.0000
vt 0.0000 0.0000
vt 0.0000 0.7925
vt 1.0000 0.8004
vt 0.0000 0.8005
vt 0.0000 0.0000
vt 0.0000 0.0000
vt 0.0000 0.0000
vt 0.0000 0.0000
vt 0.0000 0.0000
vt 0.0000 0.0000
vt 0.0000 0.0000
vt 0.0002 0.7925
vt 0.9999 0.5765
vt 0.9984 0.7925
vt 0.0000 0.0000
vt 0.0000 0.0000
vt 0.0000 0.0000
vt 0.0000 0.0000
vt 0.0000 0.0000
vt 0.0000 0.0000
vt 0.0000 0.0000
vt 0.0000 0.0000
vt 0.0000 0.0000
vt 0.0000 0.0000
vt 0.0000 0.0000
vt 0.0000 0.0000
vt 0.0000 0.0000
vt 0.0000 0.0000
vt 0.0000 0.7925
vt 1.0000 0.5765
vt 0.9982 0.7925
vt 0.0000 0.0000
vt 0.0000 0.0000
vt 0.0000 0.0000
vt 0.0000 0.0000
vt 0.0000 0.0000
vt 0.0000 0.0000
vt 0.0000 0.0000
vt 0.0000 0.0000
vt 0.0000 0.0000
vt 0.0000 1.0000
vt 0.9991 0.8004
vt 0.9996 1.0000
vt 0.0000 0.0000
vt 0.0000 0.0000
vt 0.0000 0.0000
vt 0.0000 0.0000
vt 0.0000 0.0000
vt 0.0000 0.7925
vt 1.0000 0.5765
vt 0.9982 0.7925
vt 0.0000 0.0000
vt 0.0000 0.0000
vt 0.0000 0.0000
vt 0.0000 0.0000
vt 0.0000 0.0000
vt 0.0000 0.0000
vt 0.0000 0.0000
vt 0.9991 0.8004
vt 0.0000 0.8004
vt 0.0000 1.0000
vt 0.9996 1.0000
vt 0.9931 0.5770
vt 0.0000 0.5765
vt 0.0000 0.8004
vt 0.0000 0.0000
vt 0.0000 0.0000
vt 0.0000 0.0000
vt 0.0000 0.0000
vt 0.0000 0.0000
vt 0.0000 0.0000
vt 0.0000 0.0000
vt 0.0001 0.8004
vt 0.0000 0.0000
vt 1.0000 0.7929
vt 0.0000 0.5765
vt 0.0000 0.0000
vt 0.0000 0.5765
vt 0.0000 0.0000
vt 0.0000 0.0000
vt 0.0000 0.5765
vt 0.0004 1.0000
vt 1.0000 0.9995
vt 0.0000 0.0000
vt 0.0000 0.0000
vt 0.0000 0.0000
vt 0.0000 0.0000
vt 0.0000 0.0000
vt 0.0000 0.0000
vt 0.0000 0.0000
vt 0.0000 0.0000
vt 0.0000 0.0000
vt 0.0000 0.0000
vt 0.0000 0.0000
vt 0.0000 0.0000
vt 0.0000 0.0000
vt 0.0000 0.0000
vt 0.0000 0.0000
vt 0.0000 0.0000
vt 0.0000 0.0000
vn -0.0583 -0.9402 0.3355
vn -0.6331 -0.5120 0.5805
vn -0.2270 -0.9532 0.1997
vn -0.3599 -0.9318 0.0472
vn -0.8504 -0.4435 0.2831
vn -0.0145 -0.3008 0.9536
vn -0.3262 -0.4475 0.8326
vn -0.8992 -0.4371 0.0187
vn -0.3341 -0.9425 0.0045
vn 0.8505 0.4433 0.2831
vn 0.6330 -0.5121 0.5805
vn 0.8504 -0.4435 0.2831
vn 0.7914 -0.3847 0.4750
vn 0.3341 -0.9425 0.0045
vn 0.2957 -0.8342 0.4655
vn -0.0583 0.9402 0.3355
vn -0.6331 0.5119 0.5806
vn -0.3262 0.4475 0.8327
vn -0.3598 0.9318 0.0472
vn -0.8504 0.4434 0.2831
vn 0.0888 0.9919 0.0912
vn 0.5534 0.6443 -0.5278
vn 0.5532 0.6445 0.5278
vn 0.0888 -0.9919 0.0912
vn -0.3599 -0.9318 -0.0472
vn -0.0409 -0.9299 -0.3656
vn -0.0145 0.3008 0.9536
vn -0.0823 0.9188 0.3860
vn 0.2957 0.8342 0.4655
vn -0.0764 0.8535 0.5155
vn -0.8992 0.4371 0.0188
vn -0.3973 -0.4629 0.7924
vn -0.0764 -0.8535 0.5154
vn 0.5535 -0.6443 0.5278
vn 0.0888 -0.9919 -0.0912
vn 0.3262 0.4475 -0.8327
vn 0.0211 -0.4586 -0.8884
vn 0.0211 0.4586 -0.8884
vn 0.7914 0.3847 0.4750
vn 0.8504 -0.4435 -0.2831
vn 0.8504 0.4434 -0.2831
vn -0.0408 0.9299 -0.3656
vn 0.0050 0.9503 -0.3113
vn 0.0056 -0.9504 0.3108
vn -0.0056 -0.9504 0.3108
vn -0.3975 0.4628 0.7924
vn -0.6331 -0.5120 -0.5805
vn -0.2270 -0.9532 -0.1998
vn -0.8504 -0.4434 -0.2831
vn 0.8992 0.4371 0.0187
vn -0.8992 -0.4371 -0.0187
vn -0.3341 -0.9425 -0.0045
vn 0.0145 0.3008 0.9536
vn 0.3262 -0.4476 0.8326
vn 0.3262 0.4475 0.8326
vn -0.5532 0.6444 -0.5278
vn 0.6330 -0.5121 -0.5805
vn 0.3262 -0.4476 -0.8326
vn -0.6330 0.5121 -0.5805
vn -0.3122 0.4454 -0.8391
vn -0.3599 0.9318 -0.0472
vn -0.8504 0.4435 -0.2831
vn 0.0145 -0.3008 0.9536
vn -0.8992 0.4371 -0.0187
vn -0.0888 -0.9919 -0.0912
vn 0.3599 -0.9318 0.0472
vn 0.0582 -0.9402 0.3354
vn 0.0583 0.9402 0.3354
vn 0.3599 0.9318 0.0472
vn 0.0582 -0.9402 -0.3354
vn 0.3599 -0.9318 -0.0472
vn 0.0823 0.9188 0.3859
vn 0.0044 0.7505 0.6608
vn 0.2269 -0.9532 0.1997
vn 0.8992 -0.4371 0.0187
vn -0.5533 -0.6444 -0.5278
vn -0.3122 -0.4453 -0.8392
vn 0.6331 0.5119 0.5806
vn 0.2271 0.9531 0.1998
vn 0.2269 -0.9532 -0.1996
vn 0.0050 -0.9503 -0.3113
vn 0.5533 -0.6443 -0.5279
vn -0.3341 0.9425 0.0045
vn -0.3341 0.9425 -0.0045
vn -0.0045 0.7505 0.6608
vn 0.0583 0.9402 -0.3355
vn 0.3599 0.9318 -0.0472
vn 0.6331 0.5119 -0.5805
vn 0.2271 0.9531 -0.1998
vn -0.2271 0.9531 0.1998
vn 0.3339 0.9426 0.0046
vn -0.2269 0.9532 -0.1996
vn 0.0000 0.0000 1.0000
usemtl Material.001
s 1
f 3/1/1 6/2/2 5/3/3
f 1/4/4 6/2/2 2/5/5
f 3/1/1 10/6/6 4/7/7
f 1/4/4 8/8/8 7/9/9
f 65/10/10 52/11/11 54/12/12
f 74/13/13 55/14/14 73/15/15
f 16/16/16 17/17/17 15/18/18
f 17/17/17 14/19/19 13/20/20
f 44/21/21 23/22/22 43/23/23
f 33/24/24 27/25/25 31/26/26
f 21/27/27 16/16/16 15/18/18
f 60/28/28 86/29/29 82/30/30
f 14/19/19 19/31/31 13/20/20
f 70/32/32 33/24/24 69/33/33
f 34/34/34 11/35/35 33/24/24
f 89/36/36 72/37/37 83/38/38
f 85/39/39 80/40/40 91/41/41
f 83/42/38 42/43/42 84/44/43
f 45/45/44 10/6/6 9/46/45
f 82/47/30 43/23/23 81/48/46
f 30/49/47 31/26/26 29/50/48
f 30/49/47 27/25/25 28/51/49
f 67/52/50 74/53/13 85/54/39
f 26/55/51 27/25/25 25/56/52
f 57/57/53 50/58/54 61/59/55
f 82/47/30 59/60/56 60/61/28
f 15/18/18 10/6/6 21/27/27
f 89/36/36 76/62/57 78/63/58
f 39/64/59 42/65/42 41/66/60
f 38/67/61 39/64/59 37/68/62
f 21/69/27 46/70/63 57/71/53
f 26/55/51 7/9/9 8/8/8
f 35/72/64 38/67/61 37/68/62
f 47/73/65 53/74/66 49/75/67
f 62/76/68 66/77/69 60/61/28
f 77/78/70 79/79/71 69/33/33
f 23/22/22 34/34/34 43/23/23
f 59/60/56 24/80/72 60/61/28
f 35/72/64 28/51/49 26/55/51
f 24/81/72 58/82/73 60/83/28
f 52/11/11 49/75/67 51/84/74
f 53/74/66 52/11/11 51/84/74
f 15/18/18 6/2/2 4/7/7
f 39/64/59 28/51/49 37/68/62
f 49/75/67 46/85/63 45/45/44
f 56/86/75 53/74/66 55/14/14
f 48/87/76 69/33/33 47/73/65
f 39/64/59 32/88/77 30/49/47
f 35/89/64 8/90/8 19/91/31
f 24/80/72 14/19/19 16/16/16
f 42/65/42 38/67/61 44/21/21
f 13/20/20 6/2/2 17/17/17
f 13/20/20 8/8/8 2/5/5
f 63/92/78 62/76/68 61/59/55
f 63/92/78 66/77/69 64/93/79
f 57/57/53 62/76/68 58/94/73
f 67/95/50 66/77/69 65/10/10
f 81/48/46 48/87/76 59/60/56
f 47/73/65 9/46/45 11/35/35
f 11/35/35 25/56/52 33/24/24
f 69/33/33 55/14/14 47/73/65
f 48/87/76 23/22/22 59/60/56
f 86/29/29 67/52/50 85/54/39
f 77/78/70 76/62/57 75/96/80
f 76/62/57 79/79/71 75/96/80
f 72/37/37 77/78/70 71/97/81
f 79/79/71 74/13/13 73/15/15
f 48/87/76 11/35/35 12/98/82
f 11/35/35 3/1/1 1/4/4
f 35/89/64 20/99/83 36/100/84
f 44/101/21 20/99/83 24/102/72
f 32/103/77 83/42/38 72/104/37
f 21/69/27 58/82/73 22/105/85
f 61/59/55 52/11/11 63/92/78
f 90/106/86 82/47/30 92/107/87
f 65/10/10 56/86/75 67/95/50
f 90/106/86 87/108/88 89/36/36
f 92/107/87 87/108/88 88/109/89
f 90/106/86 83/38/38 84/110/43
f 72/37/37 31/26/26 32/88/77
f 92/107/87 85/39/39 91/41/41
f 81/48/46 34/34/34 70/32/32
f 91/41/41 76/62/57 87/108/88
f 3/1/1 4/7/7 6/2/2
f 1/4/4 5/3/3 6/2/2
f 3/1/1 9/46/45 10/6/6
f 1/4/4 2/5/5 8/8/8
f 65/10/10 63/92/78 52/11/11
f 74/13/13 56/86/75 55/14/14
f 16/16/16 18/111/90 17/17/17
f 17/17/17 18/111/90 14/19/19
f 44/21/21 24/80/72 23/22/22
f 31/26/26 71/97/81 33/24/24
f 69/33/33 33/24/24 71/97/81
f 25/56/52 27/25/25 33/24/24
f 29/50/48 31/26/26 27/25/25
f 21/27/27 22/112/85 16/16/16
f 60/28/28 68/113/91 86/29/29
f 14/19/19 20/114/83 19/31/31
f 70/32/32 34/34/34 33/24/24
f 34/34/34 12/98/82 11/35/35
f 89/36/36 78/63/58 72/37/37
f 85/39/39 74/13/13 80/40/40
f 83/42/38 41/115/60 42/43/42
f 45/45/44 46/85/63 10/6/6
f 82/47/30 44/21/21 43/23/23
f 30/49/47 32/88/77 31/26/26
f 30/49/47 29/50/48 27/25/25
f 67/52/50 56/116/75 74/53/13
f 26/55/51 28/51/49 27/25/25
f 57/57/53 46/85/63 50/58/54
f 82/47/30 81/48/46 59/60/56
f 15/18/18 4/7/7 10/6/6
f 89/36/36 87/108/88 76/62/57
f 39/64/59 40/117/92 42/65/42
f 38/67/61 40/117/92 39/64/59
f 21/69/27 10/118/6 46/70/63
f 26/55/51 25/56/52 7/9/9
f 35/72/64 36/119/84 38/67/61
f 49/75/67 45/45/44 47/73/65
f 47/73/65 55/14/14 53/74/66
f 53/74/66 51/84/74 49/75/67
f 68/120/91 60/61/28 66/77/69
f 58/94/73 62/76/68 60/61/28
f 64/93/79 66/77/69 62/76/68
f 73/15/15 69/33/33 79/79/71
f 71/97/81 77/78/70 69/33/33
f 75/96/80 79/79/71 77/78/70
f 23/22/22 12/98/82 34/34/34
f 59/60/56 23/22/22 24/80/72
f 35/72/64 37/68/62 28/51/49
f 24/81/72 22/105/85 58/82/73
f 52/11/11 50/58/54 49/75/67
f 53/74/66 54/12/12 52/11/11
f 15/18/18 17/17/17 6/2/2
f 39/64/59 30/49/47 28/51/49
f 49/75/67 50/58/54 46/85/63
f 56/86/75 54/12/12 53/74/66
f 48/87/76 70/32/32 69/33/33
f 39/64/59 41/66/60 32/88/77
f 35/89/64 26/121/51 8/90/8
f 16/16/16 22/112/85 24/80/72
f 24/80/72 20/114/83 14/19/19
f 14/19/19 18/111/90 16/16/16
f 82/122/30 84/44/43 44/123/21
f 42/65/42 40/117/92 38/67/61
f 38/67/61 36/119/84 44/21/21
f 44/123/21 84/44/43 42/43/42
f 13/20/20 2/5/5 6/2/2
f 13/20/20 19/31/31 8/8/8
f 63/92/78 64/93/79 62/76/68
f 63/92/78 65/10/10 66/77/69
f 57/57/53 61/59/55 62/76/68
f 67/95/50 68/120/91 66/77/69
f 81/48/46 70/32/32 48/87/76
f 47/73/65 45/45/44 9/46/45
f 11/35/35 7/9/9 25/56/52
f 69/33/33 73/15/15 55/14/14
f 48/87/76 12/98/82 23/22/22
f 86/29/29 68/113/91 67/52/50
f 77/78/70 78/63/58 76/62/57
f 76/62/57 80/40/40 79/79/71
f 72/37/37 78/63/58 77/78/70
f 79/79/71 80/40/40 74/13/13
f 48/87/76 47/73/65 11/35/35
f 1/4/4 7/9/9 11/35/35
f 11/35/35 9/46/45 3/1/1
f 3/1/1 5/3/3 1/4/4
f 35/89/64 19/91/31 20/99/83
f 44/101/21 36/100/84 20/99/83
f 32/103/77 41/115/60 83/42/38
f 21/69/27 57/71/53 58/82/73
f 61/59/55 50/58/54 52/11/11
f 92/107/87 88/109/89 90/106/86
f 90/106/86 84/110/43 82/47/30
f 82/47/30 86/124/29 92/107/87
f 65/10/10 54/12/12 56/86/75
f 90/106/86 88/109/89 87/108/88
f 92/107/87 91/41/41 87/108/88
f 90/106/86 89/36/36 83/38/38
f 72/37/37 71/97/81 31/26/26
f 92/107/87 86/124/29 85/39/39
f 81/48/46 43/23/23 34/34/34
f 91/41/41 80/40/40 76/62/57
f 81/48/46 82/47/30 98/125/93 97/126/93
f 74/13/13 85/39/39 99/127/93 96/128/93
f 70/32/32 81/48/46 97/126/93 94/129/93
f 73/15/15 74/13/13 96/128/93 95/130/93
f 69/33/33 70/32/32 94/129/93 93/131/93
f 73/15/15 69/33/33 93/131/93 95/130/93
f 85/39/39 86/124/29 100/132/93 99/127/93
f 86/124/29 82/47/30 98/125/93 100/132/93
f 24/80/72 60/61/28 108/133/93 104/134/93
f 24/80/72 22/112/85 103/135/93 104/134/93
f 10/6/6 21/27/27 102/136/93 101/137/93
f 46/85/63 57/57/53 106/138/93 105/139/93
f 58/94/73 60/61/28 108/133/93 107/140/93
f 22/112/85 21/27/27 102/136/93 103/135/93
f 58/94/73 57/57/53 106/138/93 107/140/93
f 46/85/63 10/6/6 101/137/93 105/139/93
