# Blender v2.79 (sub 0) OBJ File: ''
# www.blender.org
mtllib Portal.mtl
o Portal
v 0.339721 0.012700 -0.850889
v 0.000000 0.012700 -1.193785
v 0.339721 0.012700 -0.507994
v 0.000000 0.012700 0.000000
v 0.682616 0.012700 -0.507994
v 1.022337 0.012700 0.000000
v 0.682616 0.012700 -0.850889
v 1.022337 0.012700 -1.193785
v 0.682616 0.000000 -0.850889
v 1.022337 0.000000 -1.193785
v 0.682616 0.000000 -0.507994
v 1.022337 0.000000 0.000000
v 0.339721 0.000000 -0.507994
v 0.000000 0.000000 0.000000
v 0.339721 0.000000 -0.850889
v 0.000000 0.000000 -1.193785
vn 0.0000 1.0000 0.0000
vn 0.0000 -1.0000 0.0000
vn -1.0000 0.0000 0.0000
vn 0.0000 0.0000 1.0000
vn 1.0000 0.0000 0.0000
vn 0.0000 0.0000 -1.0000
usemtl None
s off
f 1//1 2//1 3//1
f 3//1 2//1 4//1
f 3//1 4//1 5//1
f 5//1 4//1 6//1
f 5//1 6//1 7//1
f 7//1 6//1 8//1
f 7//1 8//1 1//1
f 1//1 8//1 2//1
f 9//2 10//2 11//2
f 11//2 10//2 12//2
f 11//2 12//2 13//2
f 13//2 12//2 14//2
f 13//2 14//2 15//2
f 15//2 14//2 16//2
f 15//2 16//2 9//2
f 9//2 16//2 10//2
f 4//3 2//3 14//3
f 14//3 2//3 16//3
f 6//4 4//4 12//4
f 12//4 4//4 14//4
f 8//5 6//5 10//5
f 10//5 6//5 12//5
f 2//6 8//6 16//6
f 16//6 8//6 10//6
f 1//5 3//5 15//5
f 15//5 3//5 13//5
f 3//6 5//6 13//6
f 13//6 5//6 11//6
f 5//3 7//3 11//3
f 11//3 7//3 9//3
f 7//4 1//4 9//4
f 9//4 1//4 15//4
