# Blender v2.79 (sub 0) OBJ File: 'ramp1.blend'
# www.blender.org
mtllib ramp1.mtl
o Cube
v 1.320801 0.082550 0.000000
v 1.320800 0.082550 1.320800
v -1.320800 0.082550 1.320800
v -1.320800 0.082550 0.000000
v -1.644650 0.000000 1.644650
v -1.644650 0.000000 0.000000
v 1.644650 0.000000 0.000000
v 1.644650 0.000000 1.644650
vn 0.0000 1.0000 -0.0000
vn -0.2470 0.9690 -0.0000
vn 0.2470 0.9690 0.0000
vn 0.0000 0.9690 0.2470
usemtl Material
s off
f 1//1 4//1 3//1 2//1
f 4//2 6//2 5//2 3//2
f 2//3 8//3 7//3 1//3
f 2//4 3//4 5//4 8//4
