# Blender v2.78 (sub 0) OBJ File: ''
# www.blender.org
mtllib Wheels.mtl
o Cube.002
v 0.600000 0.005000 -0.610000
v 0.650000 0.105000 -0.610000
v 0.600000 0.105000 -0.510000
v 0.550000 0.105000 -0.610000
v 0.600000 0.105000 -0.710000
v -0.610000 0.005000 0.610000
v -0.560000 0.105000 0.610000
v -0.610000 0.105000 0.710000
v -0.660000 0.105000 0.610000
v -0.610000 0.105000 0.510000
v 0.610000 -0.000000 0.000000
v 0.660000 0.100000 0.000000
v 0.610000 0.100000 0.100000
v 0.560000 0.100000 -0.000000
v 0.610000 0.100000 -0.100000
v -0.610000 0.005000 -0.610000
v -0.560000 0.105000 -0.610000
v -0.610000 0.105000 -0.510000
v -0.660000 0.105000 -0.610000
v -0.610000 0.105000 -0.710000
v 0.610000 0.005000 0.610000
v 0.660000 0.105000 0.610000
v 0.610000 0.105000 0.710000
v 0.560000 0.105000 0.610000
v 0.610000 0.105000 0.510000
v -0.610000 0.000000 0.000000
v -0.560000 0.100000 0.000000
v -0.610000 0.100000 0.100000
v -0.660000 0.100000 -0.000000
v -0.610000 0.100000 -0.100000
v 0.637500 0.030000 -0.610000
v 0.600000 0.030000 -0.685000
v 0.637500 0.105000 -0.685000
v 0.600000 0.030000 -0.535000
v 0.637500 0.105000 -0.535000
v 0.562500 0.030000 -0.610000
v 0.562500 0.105000 -0.535000
v 0.562500 0.105000 -0.685000
v -0.572500 0.030000 0.610000
v -0.610000 0.030000 0.535000
v -0.572500 0.105000 0.535000
v -0.610000 0.030000 0.685000
v -0.572500 0.105000 0.685000
v -0.647500 0.030000 0.610000
v -0.647500 0.105000 0.685000
v -0.647500 0.105000 0.535000
v 0.647500 0.025000 0.000000
v 0.610000 0.025000 -0.075000
v 0.647500 0.100000 -0.075000
v 0.610000 0.025000 0.075000
v 0.647500 0.100000 0.075000
v 0.572500 0.025000 -0.000000
v 0.572500 0.100000 0.075000
v 0.572500 0.100000 -0.075000
v -0.572500 0.030000 -0.610000
v -0.610000 0.030000 -0.685000
v -0.572500 0.105000 -0.685000
v -0.610000 0.030000 -0.535000
v -0.572500 0.105000 -0.535000
v -0.647500 0.030000 -0.610000
v -0.647500 0.105000 -0.535000
v -0.647500 0.105000 -0.685000
v 0.647500 0.030000 0.610000
v 0.610000 0.030000 0.535000
v 0.647500 0.105000 0.535000
v 0.610000 0.030000 0.685000
v 0.647500 0.105000 0.685000
v 0.572500 0.030000 0.610000
v 0.572500 0.105000 0.685000
v 0.572500 0.105000 0.535000
v -0.572500 0.025000 0.000000
v -0.610000 0.025000 -0.075000
v -0.572500 0.100000 -0.075000
v -0.610000 0.025000 0.075000
v -0.572500 0.100000 0.075000
v -0.647500 0.025000 -0.000000
v -0.647500 0.100000 0.075000
v -0.647500 0.100000 -0.075000
v 0.627778 0.049444 -0.665556
v 0.627778 0.049444 -0.554445
v 0.572222 0.049444 -0.554445
v 0.572222 0.049444 -0.665556
v -0.582222 0.049444 0.554444
v -0.582222 0.049444 0.665556
v -0.637778 0.049444 0.665556
v -0.637778 0.049444 0.554444
v 0.637778 0.044444 -0.055556
v 0.637778 0.044444 0.055556
v 0.582222 0.044444 0.055556
v 0.582222 0.044444 -0.055556
v -0.582222 0.049444 -0.665556
v -0.582222 0.049444 -0.554445
v -0.637778 0.049444 -0.554445
v -0.637778 0.049444 -0.665556
v 0.637778 0.049444 0.554444
v 0.637778 0.049444 0.665556
v 0.582222 0.049444 0.665556
v 0.582222 0.049444 0.554444
v -0.582222 0.044444 -0.055556
v -0.582222 0.044444 0.055556
v -0.637778 0.044444 0.055556
v -0.637778 0.044444 -0.055556
vn 0.0000 -1.0000 0.0000
vn 0.7985 -0.4256 -0.4256
vn 0.8161 -0.5778 0.0000
vn 0.7985 -0.4256 0.4256
vn 0.0000 -0.7071 0.7071
vn -0.7985 -0.4256 0.4256
vn -0.8161 -0.5778 0.0000
vn -0.7985 -0.4256 -0.4256
vn 0.0000 -0.7071 -0.7071
vn 0.9806 -0.1961 0.0000
vn 0.7715 -0.3262 -0.5463
vn 0.0000 -0.3881 0.9216
vn 0.7715 -0.3262 0.5463
vn -0.9806 -0.1961 0.0000
vn -0.7715 -0.3262 0.5463
vn 0.0000 -0.3881 -0.9216
vn -0.7715 -0.3262 -0.5463
usemtl Material.002
s 1
f 6//1 83//2 39//3
f 6//1 84//4 42//5
f 6//1 85//6 44//7
f 6//1 86//8 40//9
f 7//10 83//2 41//11
f 7//10 84//4 39//3
f 8//12 84//4 43//13
f 8//12 85//6 42//5
f 9//14 85//6 45//15
f 9//14 86//8 44//7
f 10//16 83//2 40//9
f 10//16 86//8 46//17
f 6//1 40//9 83//2
f 6//1 39//3 84//4
f 6//1 42//5 85//6
f 6//1 44//7 86//8
f 7//10 39//3 83//2
f 7//10 43//13 84//4
f 8//12 42//5 84//4
f 8//12 45//15 85//6
f 9//14 44//7 85//6
f 9//14 46//17 86//8
f 10//16 41//11 83//2
f 10//16 40//9 86//8
usemtl Material
f 1//1 79//2 31//3
f 1//1 80//4 34//5
f 1//1 81//6 36//7
f 1//1 82//8 32//9
f 2//10 79//2 33//11
f 2//10 80//4 31//3
f 3//12 80//4 35//13
f 3//12 81//6 34//5
f 4//14 81//6 37//15
f 4//14 82//8 36//7
f 5//16 79//2 32//9
f 5//16 82//8 38//17
f 1//1 32//9 79//2
f 1//1 31//3 80//4
f 1//1 34//5 81//6
f 1//1 36//7 82//8
f 2//10 31//3 79//2
f 2//10 35//13 80//4
f 3//12 34//5 80//4
f 3//12 37//15 81//6
f 4//14 36//7 81//6
f 4//14 38//17 82//8
f 5//16 33//11 79//2
f 5//16 32//9 82//8
usemtl Material.003
f 11//1 87//2 47//3
f 11//1 88//4 50//5
f 11//1 89//6 52//7
f 11//1 90//8 48//9
f 12//10 87//2 49//11
f 12//10 88//4 47//3
f 13//12 88//4 51//13
f 13//12 89//6 50//5
f 14//14 89//6 53//15
f 14//14 90//8 52//7
f 15//16 87//2 48//9
f 15//16 90//8 54//17
f 11//1 48//9 87//2
f 11//1 47//3 88//4
f 11//1 50//5 89//6
f 11//1 52//7 90//8
f 12//10 47//3 87//2
f 12//10 51//13 88//4
f 13//12 50//5 88//4
f 13//12 53//15 89//6
f 14//14 52//7 89//6
f 14//14 54//17 90//8
f 15//16 49//11 87//2
f 15//16 48//9 90//8
usemtl Material.004
f 16//1 91//2 55//3
f 16//1 92//4 58//5
f 16//1 93//6 60//7
f 16//1 94//8 56//9
f 17//10 91//2 57//11
f 17//10 92//4 55//3
f 18//12 92//4 59//13
f 18//12 93//6 58//5
f 19//14 93//6 61//15
f 19//14 94//8 60//7
f 20//16 91//2 56//9
f 20//16 94//8 62//17
f 16//1 56//9 91//2
f 16//1 55//3 92//4
f 16//1 58//5 93//6
f 16//1 60//7 94//8
f 17//10 55//3 91//2
f 17//10 59//13 92//4
f 18//12 58//5 92//4
f 18//12 61//15 93//6
f 19//14 60//7 93//6
f 19//14 62//17 94//8
f 20//16 57//11 91//2
f 20//16 56//9 94//8
usemtl Material.005
f 21//1 95//2 63//3
f 21//1 96//4 66//5
f 21//1 97//6 68//7
f 21//1 98//8 64//9
f 22//10 95//2 65//11
f 22//10 96//4 63//3
f 23//12 96//4 67//13
f 23//12 97//6 66//5
f 24//14 97//6 69//15
f 24//14 98//8 68//7
f 25//16 95//2 64//9
f 25//16 98//8 70//17
f 21//1 64//9 95//2
f 21//1 63//3 96//4
f 21//1 66//5 97//6
f 21//1 68//7 98//8
f 22//10 63//3 95//2
f 22//10 67//13 96//4
f 23//12 66//5 96//4
f 23//12 69//15 97//6
f 24//14 68//7 97//6
f 24//14 70//17 98//8
f 25//16 65//11 95//2
f 25//16 64//9 98//8
usemtl Material.006
f 26//1 99//2 71//3
f 26//1 100//4 74//5
f 26//1 101//6 76//7
f 26//1 102//8 72//9
f 27//10 99//2 73//11
f 27//10 100//4 71//3
f 28//12 100//4 75//13
f 28//12 101//6 74//5
f 29//14 101//6 77//15
f 29//14 102//8 76//7
f 30//16 99//2 72//9
f 30//16 102//8 78//17
f 26//1 72//9 99//2
f 26//1 71//3 100//4
f 26//1 74//5 101//6
f 26//1 76//7 102//8
f 27//10 71//3 99//2
f 27//10 75//13 100//4
f 28//12 74//5 100//4
f 28//12 77//15 101//6
f 29//14 76//7 101//6
f 29//14 78//17 102//8
f 30//16 73//11 99//2
f 30//16 72//9 102//8
